<svg xmlns="http://www.w3.org/2000/svg" version="1.1" xmlns:xlink="http://www.w3.org/1999/xlink" xmlns:svgjs="http://svgjs.dev/svgjs" width="32.161278" height="45.689522"><svg width="32.161278" height="45.689522" viewBox="0 0 28.792001 38.32894" version="1.1" id="SvgjsSvg1011" sodipodi:docname="logo.svg" inkscape:version="1.4 (86a8ad7, 2024-10-11)" xmlns:inkscape="http://www.inkscape.org/namespaces/inkscape" xmlns:sodipodi="http://sodipodi.sourceforge.net/DTD/sodipodi-0.dtd" xmlns="http://www.w3.org/2000/svg" xmlns:svg="http://www.w3.org/2000/svg">
  <defs id="SvgjsDefs1010"></defs>
  <sodipodi:namedview id="SvgjsSodipodi:namedview1009" pagecolor="#ffffff" bordercolor="#000000" borderopacity="0.25" inkscape:showpageshadow="2" inkscape:pageopacity="0.0" inkscape:pagecheckerboard="0" inkscape:deskcolor="#d1d1d1" inkscape:zoom="2.97995" inkscape:cx="81.544992" inkscape:cy="45.470561" inkscape:window-width="1920" inkscape:window-height="1017" inkscape:window-x="-8" inkscape:window-y="-8" inkscape:window-maximized="1" inkscape:current-layer="svg5"></sodipodi:namedview>
  <path fill="#40699f" d="m 21.789,8.3209698 c -3.66,-5.263 -7.393,-9.608 -7.393,-9.608 0,0 -3.73,4.345 -7.394,9.608 C 3.47,13.39697 0.002,19.28397 0,25.21797 c 0,7.952 6.445,14.398 14.396,14.398 7.95,0 14.396,-6.446 14.396,-14.398 -0.002,-5.935 -3.47,-11.822 -7.003,-16.8970002 z" id="SvgjsPath1008"></path>
  <path fill="#ffffff" fill-rule="evenodd" d="m 14.39,29.52097 c 2.37,0 4.29,-1.916 4.29,-4.28 0,-2.37 -1.92,-4.288 -4.29,-4.288 -2.36,0 -4.277,1.917 -4.277,4.287 0,2.36 1.92,4.28 4.28,4.28 z" clip-rule="evenodd" id="SvgjsPath1007"></path>
  <path fill="#ffffff" fill-rule="evenodd" d="m 13.874,36.28097 c -4.324,-0.21 -8.142,-2.957 -9.728,-6.997 -1.24,-3.887 -0.272,-9.248 2.412,-13.334 0.356,-0.54 0.763,-0.81 1.243,-0.81 0.38,0 0.74,0.17 1.02,0.31 0.27,0.15 0.51,0.47 0.58,0.8 0.04,0.18 0.05,0.45 -0.13,0.71 -0.42,0.59 -2.93,5.54 -1.86,9.89 0.77,3.15 3.44,5.11 6.97,5.13 3.52,-0.01 6.19,-1.98 6.97,-5.13 1.07,-4.35 -1.44,-9.3 -1.86,-9.9 -0.18,-0.26 -0.17,-0.53 -0.13,-0.71 0.07,-0.33 0.31,-0.65 0.58,-0.8 0.27,-0.15 0.64,-0.32 1.02,-0.32 0.48,0 0.89,0.26 1.24,0.8 2.684,4.08 3.65,9.44 2.41,13.34 -1.584,4.03 -5.4,6.78 -9.727,6.99 h -1.012 z" clip-rule="evenodd" id="SvgjsPath1006"></path>
</svg><style>@media (prefers-color-scheme: light) { :root { filter: none; } }
@media (prefers-color-scheme: dark) { :root { filter: none; } }
</style></svg>