<svg xmlns="http://www.w3.org/2000/svg" width="30" height="23" class="burger-open-svg">
  <path fill="#0069AA" fill-rule="evenodd" d="M0 1.5A1.5 1.5 0 0 1 1.508 0h26.984a1.5 1.5 0 1 1 0 3H1.508A1.5 1.5 0 0 1 0 1.5zm0 10c0-.828.665-1.5 1.503-1.5h16.994c.83 0 1.503.666 1.503 1.5 0 .828-.665 1.5-1.503 1.5H1.503C.673 13 0 12.334 0 11.5zm22 0c0-.828.668-1.5 1.505-1.5h4.99a1.5 1.5 0 1 1 0 3h-4.99A1.5 1.5 0 0 1 22 11.5zm-22 10A1.5 1.5 0 0 1 1.508 20h26.984a1.5 1.5 0 1 1 0 3H1.508A1.5 1.5 0 0 1 0 21.5z"></path>
</svg>
