<svg xmlns="http://www.w3.org/2000/svg" width="25" height="25" class="burger-close-svg">
  <path fill="#0069AA" fill-rule="evenodd" d="M14.373 10.84l6.724-6.723c.77-.772.773-2.043-.01-2.826l-.7-.7C19.6-.193 18.34-.194 17.56.58l-6.723 6.725L4.114.58c-.778-.776-2.04-.775-2.826.01l-.7.7c-.783.784-.782 2.055-.01 2.827l6.724 6.724-6.724 6.725c-.772.772-.773 2.043.01 2.826l.7.7c.786.787 2.048.788 2.826.01l6.723-6.723L17.56 21.1c.78.777 2.04.776 2.827-.01l.7-.7c.783-.783.78-2.054.01-2.826l-6.724-6.723z"></path>
</svg>
