<svg xmlns="http://www.w3.org/2000/svg" xml:space="preserve" id="Capa_1" x="0" y="0" style="enable-background:new 0 0 466 466" version="1.1" viewBox="0 0 466 466"><style>.st0{fill:#02528a}</style><path d="M383.5 344.8v1.6c0 34.5-28.2 62.7-62.7 62.7h-28.2c-5.2-18.3-22.5-31.9-42.3-31.9H233c-24.6 0-44.4 19.9-44.4 44.4S208.5 466 233 466h17.2c17.8 0 32.9-10.4 40.2-25.6h30.3c51.7 0 94-42.3 94-94v-1.6h-31.2zm-133.2 89.9H233c-6.8 0-13.1-6.3-13.1-13.1s6.3-13.1 13.1-13.1h17.2c6.8 0 13.1 6.3 13.1 13.1 0 7.3-5.7 13.1-13 13.1z" class="st0"/><path d="M414.8 201.7v-19.9C414.8 81.5 333.3 0 233 0S51.2 81.5 51.2 181.3v20.4c-18.8 5.7-32.4 23.5-32.4 44.4V314c0 26.1 20.9 47 47 47h19.3c2.1 5.7 7.8 9.9 14.6 9.9l54.9.5c4.2 0 7.8-1.6 11-4.7 3.1-3.1 4.7-6.8 4.7-11V204.3c0-8.9-6.8-15.7-15.7-15.7H99.8c-6.8 0-12.5 4.2-14.6 10.4h-2.6v-17.8c0-82.5 67.4-149.9 150.5-149.9s150.5 67.4 150.5 150.5V199h-2.1c-2.1-6.3-7.8-10.4-14.6-10.4h-55.4c-8.9 0-15.7 6.8-15.7 15.7v151c0 8.9 6.8 15.7 15.7 15.7h55.4c6.8 0 12-4.2 14.6-9.9h18.8c26.1 0 47-20.9 47-47v-67.9c-.1-21-13.7-38.8-32.5-44.5zM115.5 220H139v120.2h-23.5V220zm-65.3 94v-67.9c0-8.9 6.8-15.7 15.7-15.7h18.3v99.3H65.8c-8.9 0-15.6-6.8-15.6-15.7zm300.9 25.6h-24V220h24v119.6zm64.8-25.6c0 8.9-6.8 15.7-15.7 15.7h-17.8v-99.3h17.8c8.9 0 15.7 6.8 15.7 15.7V314z" class="st0"/></svg>