<?xml version="1.0" encoding="UTF-8" standalone="no"?>
<!-- Generator: Adobe Illustrator 19.0.0, SVG Export Plug-In . SVG Version: 6.00 Build 0)  -->

<svg
  version="1.1"
  id="Layer_1"
  x="0px"
  y="0px"
  viewBox="0 0 512 512"
  style="enable-background:new 0 0 512 512;"
  xml:space="preserve"
  sodipodi:docname="icon-file.svg"
  inkscape:version="1.4 (86a8ad7, 2024-10-11)"
  xmlns:inkscape="http://www.inkscape.org/namespaces/inkscape"
  xmlns:sodipodi="http://sodipodi.sourceforge.net/DTD/sodipodi-0.dtd"
  xmlns="http://www.w3.org/2000/svg"
  xmlns:svg="http://www.w3.org/2000/svg"><defs
  id="defs21" /><sodipodi:namedview
  id="namedview21"
  pagecolor="#ffffff"
  bordercolor="#000000"
  borderopacity="0.25"
  inkscape:showpageshadow="2"
  inkscape:pageopacity="0.0"
  inkscape:pagecheckerboard="0"
  inkscape:deskcolor="#d1d1d1"
  inkscape:zoom="1.1255704"
  inkscape:cx="273.63905"
  inkscape:cy="363.81555"
  inkscape:window-width="1920"
  inkscape:window-height="1017"
  inkscape:window-x="-8"
  inkscape:window-y="-8"
  inkscape:window-maximized="1"
  inkscape:current-layer="g6"
  showguides="true" />
<path
  style="fill:#E2E5E7;"
  d="M128,0c-17.6,0-32,14.4-32,32v448c0,17.6,14.4,32,32,32h320c17.6,0,32-14.4,32-32V128L352,0H128z"
  id="path1" />
<path
  style="fill:#B0B7BD;"
  d="M384,128h96L352,0v96C352,113.6,366.4,128,384,128z"
  id="path2" />
<polygon
  style="fill:#CAD1D8;"
  points="480,224 384,128 480,128 "
  id="polygon2" />
<path
  style="fill:#3764a0;fill-opacity:1"
  d="m 416,416 c 0,8.8 -7.2,16 -16,16 H 48 c -8.8,0 -16,-7.2 -16,-16 V 256 c 0,-8.8 7.2,-16 16,-16 h 352 c 8.8,0 16,7.2 16,16 z"
  id="path3"
  sodipodi:nodetypes="sssssssss" />
<g
  id="g6"
  style="display:inline">


  <path
  style="display:inline;fill:#ffffff"
  d="m 306.736,311.656 v 20.336 h 32.624 c 4.608,0 9.216,4.608 9.216,9.072 0,4.224 -4.608,7.68 -9.216,7.68 h -32.624 l 0.0785,18.30449 c 0,0 35.65505,-0.0739 37.23963,-0.0797 5.60277,-0.0206 8.63301,2.71101 8.66973,8.00361 0.0336,4.83949 -3.03209,8.64022 -8.69743,8.54139 -2.97462,-0.0519 -41.6762,0.0143 -44.95446,0.0143 -5.632,0 -9.072,-3.44 -9.072,-7.92 v -72.672 c 0,-4.592 3.456,-7.936 9.072,-7.936 h 44.912 c 5.632,0 8.96,3.344 8.96,7.936 0,4.096 -3.328,8.704 -8.96,8.704 h -37.248 z"
  id="path6-0-4"
  sodipodi:nodetypes="ccsssccsssssssssscc" /><path
  style="fill:#ffffff"
  d="m 220,302.808 c 0,-4.224 3.584,-7.808 8.064,-7.808 4.096,0 7.552,3.6 7.552,7.808 v 64.096 h 34.8 c 12.528,0 12.8,16.752 0,16.752 H 228.08 c -4.48,0 -8.064,-3.184 -8.064,-7.792 v -73.056 z"
  id="path5" /><path
  style="display:inline;fill:#ffffff"
  d="m 205.19096,311.41869 v 20.336 c 0.0389,15.31591 0,29.07687 0,43.616 0,4.48 -3.184,7.92 -7.664,7.92 -5.632,0 -9.072,-3.44 -9.072,-7.92 v -72.672 c 0,-4.592 3.45602,-7.91996 9.072,-7.936 3.78432,-0.0108 8.14322,2.87378 7.93075,8.97722 l -0.26675,7.66278 z"
  id="path6-0-9"
  sodipodi:nodetypes="ccsssssscc" /><path
  style="display:inline;fill:#ffffff"
  d="m 131.09711,311.50592 v 20.336 h 32.624 c 4.608,0 9.216,4.608 9.216,9.072 0,4.224 -4.608,7.68 -9.216,7.68 h -32.624 v 26.864 c 0,4.48 -3.184,7.92 -7.664,7.92 -5.632,0 -9.072,-3.44 -9.072,-7.92 v -72.672 c 0,-4.592 3.456,-7.936 9.072,-7.936 h 44.912 c 5.632,0 8.96,3.344 8.96,7.936 0,4.096 -3.328,8.704 -8.96,8.704 h -37.248 z"
  id="path6-0" />
</g>
<path
  style="fill:#CAD1D8;"
  d="M400,432H96v16h304c8.8,0,16-7.2,16-16v-16C416,424.8,408.8,432,400,432z"
  id="path7" />
<g
  id="g7">
</g>
<g
  id="g8">
</g>
<g
  id="g9">
</g>
<g
  id="g10">
</g>
<g
  id="g11">
</g>
<g
  id="g12">
</g>
<g
  id="g13">
</g>
<g
  id="g14">
</g>
<g
  id="g15">
</g>
<g
  id="g16">
</g>
<g
  id="g17">
</g>
<g
  id="g18">
</g>
<g
  id="g19">
</g>
<g
  id="g20">
</g>
<g
  id="g21">
</g>
</svg>
