<svg xmlns="http://www.w3.org/2000/svg" xmlns:xlink="http://www.w3.org/1999/xlink" xmlns:inkscape="http://www.inkscape.org/namespaces/inkscape" xmlns:sodipodi="http://sodipodi.sourceforge.net/DTD/sodipodi-0.dtd" xmlns:svg="http://www.w3.org/2000/svg"><symbol id="icon-calculator" viewBox="0 0 450.351 450.351"><g style="enable-background:new 0 0 450.351 450.351;">
<path style="fill:#1185E0;" d="M423.445,450.351H26.906c-8.882,0-15.673-6.792-15.673-15.673V15.673C11.233,6.792,18.024,0,26.906,0
  h396.539c8.882,0,15.673,6.792,15.673,15.673v419.004C439.118,443.559,432.327,450.351,423.445,450.351z M42.58,419.004h365.192
  V31.347H42.58V419.004z"/>
<path style="fill:#4DCFE0;" d="M369.633,141.584H80.718c-8.882,0-15.673-6.792-15.673-15.673V63.739
  c0-8.882,6.792-15.673,15.673-15.673h288.914c8.882,0,15.673,6.792,15.673,15.673v62.171
  C385.306,134.792,378.514,141.584,369.633,141.584z M96.392,110.237h257.567V79.412H96.392V110.237z"/>
<g>
  <path style="fill:#1185E0;" d="M142.89,232.49H80.718c-8.882,0-15.673-6.792-15.673-15.673v-45.453
    c0-8.882,6.792-15.673,15.673-15.673h62.171c8.882,0,15.673,6.792,15.673,15.673v45.453
    C158.563,225.698,151.771,232.49,142.89,232.49z M96.392,201.143h30.824v-14.106H96.392V201.143z"/>
  <path style="fill:#1185E0;" d="M142.89,317.649H80.718c-8.882,0-15.673-6.792-15.673-15.673v-45.453
    c0-8.882,6.792-15.673,15.673-15.673h62.171c8.882,0,15.673,6.792,15.673,15.673v45.453
    C158.563,310.857,151.771,317.649,142.89,317.649z M96.392,286.302h30.824v-14.106H96.392V286.302z"/>
  <path style="fill:#1185E0;" d="M142.89,402.286H80.718c-8.882,0-15.673-6.792-15.673-15.673v-45.453
    c0-8.882,6.792-15.673,15.673-15.673h62.171c8.882,0,15.673,6.792,15.673,15.673v45.453
    C158.563,395.494,151.771,402.286,142.89,402.286z M96.392,370.939h30.824v-14.106H96.392V370.939z"/>
  <path style="fill:#1185E0;" d="M255.739,232.49h-62.171c-8.882,0-15.673-6.792-15.673-15.673v-45.453
    c0-8.882,6.792-15.673,15.673-15.673h62.171c8.882,0,15.673,6.792,15.673,15.673v45.453
    C271.412,225.698,264.62,232.49,255.739,232.49z M209.241,201.143h30.824v-14.106h-30.824V201.143z"/>
  <path style="fill:#1185E0;" d="M255.739,317.649h-62.171c-8.882,0-15.673-6.792-15.673-15.673v-45.453
    c0-8.882,6.792-15.673,15.673-15.673h62.171c8.882,0,15.673,6.792,15.673,15.673v45.453
    C271.412,310.857,264.62,317.649,255.739,317.649z M209.241,286.302h30.824v-14.106h-30.824V286.302z"/>
  <path style="fill:#1185E0;" d="M255.739,402.286h-62.171c-8.882,0-15.673-6.792-15.673-15.673v-45.453
    c0-8.882,6.792-15.673,15.673-15.673h62.171c8.882,0,15.673,6.792,15.673,15.673v45.453
    C271.412,395.494,264.62,402.286,255.739,402.286z M209.241,370.939h30.824v-14.106h-30.824V370.939z"/>
  <path style="fill:#1185E0;" d="M369.11,232.49h-62.171c-8.882,0-15.673-6.792-15.673-15.673v-45.453
    c0-8.882,6.792-15.673,15.673-15.673h62.171c8.882,0,15.673,6.792,15.673,15.673v45.453
    C384.784,225.698,377.992,232.49,369.11,232.49z M322.612,201.143h30.824v-14.106h-30.824V201.143z"/>
  <path style="fill:#1185E0;" d="M369.11,317.649h-62.171c-8.882,0-15.673-6.792-15.673-15.673v-45.453
    c0-8.882,6.792-15.673,15.673-15.673h62.171c8.882,0,15.673,6.792,15.673,15.673v45.453
    C384.784,310.857,377.992,317.649,369.11,317.649z M322.612,286.302h30.824v-14.106h-30.824V286.302z"/>
  <path style="fill:#1185E0;" d="M369.11,402.286h-62.171c-8.882,0-15.673-6.792-15.673-15.673v-45.453
    c0-8.882,6.792-15.673,15.673-15.673h62.171c8.882,0,15.673,6.792,15.673,15.673v45.453
    C384.784,395.494,377.992,402.286,369.11,402.286z M322.612,370.939h30.824v-14.106h-30.824V370.939z"/>
</g>
<g>
</g>
<g>
</g>
<g>
</g>
<g>
</g>
<g>
</g>
<g>
</g>
<g>
</g>
<g>
</g>
<g>
</g>
<g>
</g>
<g>
</g>
<g>
</g>
<g>
</g>
<g>
</g>
<g>
</g>
</g></symbol><symbol id="icon-cash5" viewBox="0 0 421.094 421.094"><g style="enable-background:new 0 0 421.094 421.094;">
<path style="fill:#4DCFE0;" d="M389.747,82.547c0-5.747-2.612-10.449-7.314-13.061L318.171,4.702
  c-6.269-6.269-16.196-6.269-21.943,0c-6.269,6.269-6.269,16.196,0,21.943l39.706,40.229H47.543c-8.882,0-15.673,6.792-15.673,15.673
  v121.208c0,8.882,6.792,15.673,15.673,15.673s15.673-6.792,15.673-15.673V98.22h272.718l-39.706,39.706
  c-6.269,6.269-6.269,16.196,0,21.943c3.135,3.135,7.314,4.702,10.971,4.702c3.657,0,7.837-1.567,10.971-4.702l64.261-64.261
  C387.135,92.996,389.747,88.294,389.747,82.547z"/>
<path style="fill:#1185E0;" d="M373.551,195.396c-8.882,0-15.673,6.792-15.673,15.673v110.759H85.159l39.706-39.706
  c6.269-6.269,6.269-16.196,0-21.943c-6.269-6.269-16.196-6.269-21.943,0l-66.351,66.351c-0.522,0.522-1.567,1.567-2.09,2.612
  c0,0.522-0.522,0.522-0.522,1.045c-0.522,0.522-0.522,1.045-1.045,1.567c0,0.522-0.522,1.045-0.522,1.567
  c0,0.522-0.522,1.045-0.522,1.567c0,1.045-0.522,2.09-0.522,3.135l0,0v0.522c0,1.045,0,1.567,0.522,2.612
  c0,0.522,0,1.045,0.522,1.567c0,0.522,0.522,1.045,0.522,1.567c0,0.522,0.522,1.045,0.522,1.567c0,0.522,0.522,1.045,0.522,1.045
  c0.522,0.522,1.045,1.045,1.567,2.09c0,0,0,0.522,0.522,0.522l66.351,66.873c3.135,3.135,7.314,4.702,10.971,4.702
  c4.18,0,7.837-1.567,10.971-4.702c6.269-6.269,6.269-16.196,0-21.943l-39.184-41.274h288.392c8.882,0,15.673-6.792,15.673-15.673
  V211.069C389.225,202.188,382.433,195.396,373.551,195.396z"/>
<g>
</g>
<g>
</g>
<g>
</g>
<g>
</g>
<g>
</g>
<g>
</g>
<g>
</g>
<g>
</g>
<g>
</g>
<g>
</g>
<g>
</g>
<g>
</g>
<g>
</g>
<g>
</g>
<g>
</g>
</g></symbol><symbol id="icon-close" viewBox="0 0 24 24"><g fill="none">
  <path fill-rule="evenodd" clip-rule="evenodd" d="M18.7071 5.29289C19.0976 5.68342 19.0976 6.31658 18.7071 6.70711L6.70711 18.7071C6.31658 19.0976 5.68342 19.0976 5.29289 18.7071C4.90237 18.3166 4.90237 17.6834 5.29289 17.2929L17.2929 5.29289C17.6834 4.90237 18.3166 4.90237 18.7071 5.29289Z" fill="currentColor"/>
  <path fill-rule="evenodd" clip-rule="evenodd" d="M5.29289 5.29289C5.68342 4.90237 6.31658 4.90237 6.70711 5.29289L18.7071 17.2929C19.0976 17.6834 19.0976 18.3166 18.7071 18.7071C18.3166 19.0976 17.6834 19.0976 17.2929 18.7071L5.29289 6.70711C4.90237 6.31658 4.90237 5.68342 5.29289 5.29289Z" fill="currentColor"/>
</g></symbol><symbol id="icon-doc" viewBox="0 0 512 512"><g style="enable-background:new 0 0 512 512;">
<path style="fill:#E2E5E7;" d="M128,0c-17.6,0-32,14.4-32,32v448c0,17.6,14.4,32,32,32h320c17.6,0,32-14.4,32-32V128L352,0H128z"/>
<path style="fill:#B0B7BD;" d="M384,128h96L352,0v96C352,113.6,366.4,128,384,128z"/>
<polygon style="fill:#CAD1D8;" points="480,224 384,128 480,128 "/>
<path style="fill:#50BEE8;" d="M416,416c0,8.8-7.2,16-16,16H48c-8.8,0-16-7.2-16-16V256c0-8.8,7.2-16,16-16h352c8.8,0,16,7.2,16,16
  V416z"/>
<g>
  <path style="fill:#FFFFFF;" d="M92.576,384c-4.224,0-8.832-2.32-8.832-7.936v-72.656c0-4.608,4.608-7.936,8.832-7.936h29.296
    c58.464,0,57.168,88.528,1.136,88.528H92.576z M100.64,311.072v57.312h21.232c34.544,0,36.064-57.312,0-57.312H100.64z"/>
  <path style="fill:#FFFFFF;" d="M228,385.28c-23.664,1.024-48.24-14.72-48.24-46.064c0-31.472,24.56-46.944,48.24-46.944
    c22.384,1.136,45.792,16.624,45.792,46.944C273.792,369.552,250.384,385.28,228,385.28z M226.592,308.912
    c-14.336,0-29.936,10.112-29.936,30.32c0,20.096,15.616,30.336,29.936,30.336c14.72,0,30.448-10.24,30.448-30.336
    C257.04,319.008,241.312,308.912,226.592,308.912z"/>
  <path style="fill:#FFFFFF;" d="M288.848,339.088c0-24.688,15.488-45.92,44.912-45.92c11.136,0,19.968,3.328,29.296,11.392
    c3.456,3.184,3.84,8.816,0.384,12.4c-3.456,3.056-8.704,2.688-11.776-0.384c-5.232-5.504-10.608-7.024-17.904-7.024
    c-19.696,0-29.152,13.952-29.152,29.552c0,15.872,9.328,30.448,29.152,30.448c7.296,0,14.08-2.96,19.968-8.192
    c3.952-3.072,9.456-1.552,11.76,1.536c2.048,2.816,3.056,7.552-1.408,12.016c-8.96,8.336-19.696,10-30.336,10
    C302.8,384.912,288.848,363.776,288.848,339.088z"/>
</g>
<path style="fill:#CAD1D8;" d="M400,432H96v16h304c8.8,0,16-7.2,16-16v-16C416,424.8,408.8,432,400,432z"/>
<g>
</g>
<g>
</g>
<g>
</g>
<g>
</g>
<g>
</g>
<g>
</g>
<g>
</g>
<g>
</g>
<g>
</g>
<g>
</g>
<g>
</g>
<g>
</g>
<g>
</g>
<g>
</g>
<g>
</g>
</g></symbol><symbol id="icon-edit" viewBox="0 0 417.959 417.959"><g style="enable-background:new 0 0 417.959 417.959;">
<g>
  <path style="fill:#4DCFE0;" d="M260.18,190.694H158.302c-8.882,0-15.673-6.792-15.673-15.673s6.792-15.673,15.673-15.673H260.18
    c8.882,0,15.673,6.792,15.673,15.673S269.061,190.694,260.18,190.694z"/>
  <path style="fill:#4DCFE0;" d="M201.143,258.612h-42.841c-8.882,0-15.673-6.792-15.673-15.673s6.792-15.673,15.673-15.673h42.841
    c8.882,0,15.673,6.792,15.673,15.673S210.024,258.612,201.143,258.612z"/>
  <path style="fill:#4DCFE0;" d="M182.857,326.531h-24.555c-8.882,0-15.673-6.792-15.673-15.673s6.792-15.673,15.673-15.673h24.555
    c8.882,0,15.673,6.792,15.673,15.673S191.739,326.531,182.857,326.531z"/>
  <path style="fill:#4DCFE0;" d="M103.445,122.776H74.71c-8.882,0-15.673-6.792-15.673-15.673s6.792-15.673,15.673-15.673h28.735
    c8.882,0,15.673,6.792,15.673,15.673S112.327,122.776,103.445,122.776z"/>
  <path style="fill:#4DCFE0;" d="M260.18,122.776H158.302c-8.882,0-15.673-6.792-15.673-15.673s6.792-15.673,15.673-15.673H260.18
    c8.882,0,15.673,6.792,15.673,15.673S269.061,122.776,260.18,122.776z"/>
  <path style="fill:#4DCFE0;" d="M103.445,190.694H74.71c-8.882,0-15.673-6.792-15.673-15.673s6.792-15.673,15.673-15.673h28.735
    c8.882,0,15.673,6.792,15.673,15.673S112.327,190.694,103.445,190.694z"/>
  <path style="fill:#4DCFE0;" d="M103.445,258.612H74.71c-8.882,0-15.673-6.792-15.673-15.673s6.792-15.673,15.673-15.673h28.735
    c8.882,0,15.673,6.792,15.673,15.673S112.327,258.612,103.445,258.612z"/>
  <path style="fill:#4DCFE0;" d="M103.445,326.531H74.71c-8.882,0-15.673-6.792-15.673-15.673s6.792-15.673,15.673-15.673h28.735
    c8.882,0,15.673,6.792,15.673,15.673S112.327,326.531,103.445,326.531z"/>
</g>
<path style="fill:#1185E0;" d="M413.257,143.673l-56.424-56.424c-6.269-6.269-16.196-6.269-21.943,0l-1.567,1.567V36.049
  c0-17.763-13.584-31.347-31.347-31.347H31.347C13.584,4.702,0,18.286,0,36.049V381.91c0,17.763,13.584,31.347,31.347,31.347h270.629
  c17.763,0,31.347-13.584,31.347-31.347V246.073l79.935-80.457C419.527,159.347,419.527,149.42,413.257,143.673z M301.976,381.91
  H31.347V36.049h270.629v83.592L190.171,231.445c-2.09,2.09-3.135,4.18-4.18,7.314l-20.376,77.322c-1.567,5.224,0,10.971,4.18,15.151
  c3.135,3.135,6.792,4.702,10.971,4.702c1.567,0,2.612,0,4.18-0.522l77.322-20.376c2.612-0.522,5.224-2.09,7.314-4.18l32.914-32.914
  V381.91H301.976z M209.502,272.718l18.286,18.286l-25.078,6.792L209.502,272.718z M258.09,277.42l-35.004-34.482l84.637-84.114
  l34.482,34.482L258.09,277.42z M364.669,170.318l-34.482-34.482l15.673-15.673l34.482,34.482L364.669,170.318z"/>
<g>
</g>
<g>
</g>
<g>
</g>
<g>
</g>
<g>
</g>
<g>
</g>
<g>
</g>
<g>
</g>
<g>
</g>
<g>
</g>
<g>
</g>
<g>
</g>
<g>
</g>
<g>
</g>
<g>
</g>
</g></symbol><symbol id="icon-file" viewBox="0 0 512 512"><g style="enable-background:new 0 0 512 512;"><sodipodi:namedview id="namedview21" pagecolor="#ffffff" bordercolor="#000000" borderopacity="0.25" inkscape:showpageshadow="2" inkscape:pageopacity="0.0" inkscape:pagecheckerboard="0" inkscape:deskcolor="#d1d1d1" inkscape:zoom="1.1255704" inkscape:cx="273.63905" inkscape:cy="363.81555" inkscape:window-width="1920" inkscape:window-height="1017" inkscape:window-x="-8" inkscape:window-y="-8" inkscape:window-maximized="1" inkscape:current-layer="g6" showguides="true"/>
<path style="fill:#E2E5E7;" d="M128,0c-17.6,0-32,14.4-32,32v448c0,17.6,14.4,32,32,32h320c17.6,0,32-14.4,32-32V128L352,0H128z" id="path1"/>
<path style="fill:#B0B7BD;" d="M384,128h96L352,0v96C352,113.6,366.4,128,384,128z" id="path2"/>
<polygon style="fill:#CAD1D8;" points="480,224 384,128 480,128 " id="polygon2"/>
<path style="fill:#3764a0;fill-opacity:1" d="m 416,416 c 0,8.8 -7.2,16 -16,16 H 48 c -8.8,0 -16,-7.2 -16,-16 V 256 c 0,-8.8 7.2,-16 16,-16 h 352 c 8.8,0 16,7.2 16,16 z" id="path3" sodipodi:nodetypes="sssssssss"/>
<g id="g6" style="display:inline">


  <path style="display:inline;fill:#ffffff" d="m 306.736,311.656 v 20.336 h 32.624 c 4.608,0 9.216,4.608 9.216,9.072 0,4.224 -4.608,7.68 -9.216,7.68 h -32.624 l 0.0785,18.30449 c 0,0 35.65505,-0.0739 37.23963,-0.0797 5.60277,-0.0206 8.63301,2.71101 8.66973,8.00361 0.0336,4.83949 -3.03209,8.64022 -8.69743,8.54139 -2.97462,-0.0519 -41.6762,0.0143 -44.95446,0.0143 -5.632,0 -9.072,-3.44 -9.072,-7.92 v -72.672 c 0,-4.592 3.456,-7.936 9.072,-7.936 h 44.912 c 5.632,0 8.96,3.344 8.96,7.936 0,4.096 -3.328,8.704 -8.96,8.704 h -37.248 z" id="path6-0-4" sodipodi:nodetypes="ccsssccsssssssssscc"/><path style="fill:#ffffff" d="m 220,302.808 c 0,-4.224 3.584,-7.808 8.064,-7.808 4.096,0 7.552,3.6 7.552,7.808 v 64.096 h 34.8 c 12.528,0 12.8,16.752 0,16.752 H 228.08 c -4.48,0 -8.064,-3.184 -8.064,-7.792 v -73.056 z" id="path5"/><path style="display:inline;fill:#ffffff" d="m 205.19096,311.41869 v 20.336 c 0.0389,15.31591 0,29.07687 0,43.616 0,4.48 -3.184,7.92 -7.664,7.92 -5.632,0 -9.072,-3.44 -9.072,-7.92 v -72.672 c 0,-4.592 3.45602,-7.91996 9.072,-7.936 3.78432,-0.0108 8.14322,2.87378 7.93075,8.97722 l -0.26675,7.66278 z" id="path6-0-9" sodipodi:nodetypes="ccsssssscc"/><path style="display:inline;fill:#ffffff" d="m 131.09711,311.50592 v 20.336 h 32.624 c 4.608,0 9.216,4.608 9.216,9.072 0,4.224 -4.608,7.68 -9.216,7.68 h -32.624 v 26.864 c 0,4.48 -3.184,7.92 -7.664,7.92 -5.632,0 -9.072,-3.44 -9.072,-7.92 v -72.672 c 0,-4.592 3.456,-7.936 9.072,-7.936 h 44.912 c 5.632,0 8.96,3.344 8.96,7.936 0,4.096 -3.328,8.704 -8.96,8.704 h -37.248 z" id="path6-0"/>
</g>
<path style="fill:#CAD1D8;" d="M400,432H96v16h304c8.8,0,16-7.2,16-16v-16C416,424.8,408.8,432,400,432z" id="path7"/>
<g id="g7">
</g>
<g id="g8">
</g>
<g id="g9">
</g>
<g id="g10">
</g>
<g id="g11">
</g>
<g id="g12">
</g>
<g id="g13">
</g>
<g id="g14">
</g>
<g id="g15">
</g>
<g id="g16">
</g>
<g id="g17">
</g>
<g id="g18">
</g>
<g id="g19">
</g>
<g id="g20">
</g>
<g id="g21">
</g>
</g></symbol><symbol id="icon-headset" viewBox="0 0 466 466"><g style="enable-background:new 0 0 466 466"><style>.st0{fill:#02528a}</style><path d="M383.5 344.8v1.6c0 34.5-28.2 62.7-62.7 62.7h-28.2c-5.2-18.3-22.5-31.9-42.3-31.9H233c-24.6 0-44.4 19.9-44.4 44.4S208.5 466 233 466h17.2c17.8 0 32.9-10.4 40.2-25.6h30.3c51.7 0 94-42.3 94-94v-1.6h-31.2zm-133.2 89.9H233c-6.8 0-13.1-6.3-13.1-13.1s6.3-13.1 13.1-13.1h17.2c6.8 0 13.1 6.3 13.1 13.1 0 7.3-5.7 13.1-13 13.1z" class="st0"/><path d="M414.8 201.7v-19.9C414.8 81.5 333.3 0 233 0S51.2 81.5 51.2 181.3v20.4c-18.8 5.7-32.4 23.5-32.4 44.4V314c0 26.1 20.9 47 47 47h19.3c2.1 5.7 7.8 9.9 14.6 9.9l54.9.5c4.2 0 7.8-1.6 11-4.7 3.1-3.1 4.7-6.8 4.7-11V204.3c0-8.9-6.8-15.7-15.7-15.7H99.8c-6.8 0-12.5 4.2-14.6 10.4h-2.6v-17.8c0-82.5 67.4-149.9 150.5-149.9s150.5 67.4 150.5 150.5V199h-2.1c-2.1-6.3-7.8-10.4-14.6-10.4h-55.4c-8.9 0-15.7 6.8-15.7 15.7v151c0 8.9 6.8 15.7 15.7 15.7h55.4c6.8 0 12-4.2 14.6-9.9h18.8c26.1 0 47-20.9 47-47v-67.9c-.1-21-13.7-38.8-32.5-44.5zM115.5 220H139v120.2h-23.5V220zm-65.3 94v-67.9c0-8.9 6.8-15.7 15.7-15.7h18.3v99.3H65.8c-8.9 0-15.6-6.8-15.6-15.7zm300.9 25.6h-24V220h24v119.6zm64.8-25.6c0 8.9-6.8 15.7-15.7 15.7h-17.8v-99.3h17.8c8.9 0 15.7 6.8 15.7 15.7V314z" class="st0"/></g></symbol><symbol id="icon-jpg" viewBox="0 0 512 512"><g style="enable-background:new 0 0 512 512;">
<path style="fill:#E2E5E7;" d="M128,0c-17.6,0-32,14.4-32,32v448c0,17.6,14.4,32,32,32h320c17.6,0,32-14.4,32-32V128L352,0H128z"/>
<path style="fill:#B0B7BD;" d="M384,128h96L352,0v96C352,113.6,366.4,128,384,128z"/>
<polygon style="fill:#CAD1D8;" points="480,224 384,128 480,128 "/>
<path style="fill:#50BEE8;" d="M416,416c0,8.8-7.2,16-16,16H48c-8.8,0-16-7.2-16-16V256c0-8.8,7.2-16,16-16h352c8.8,0,16,7.2,16,16
  V416z"/>
<g>
  <path style="fill:#FFFFFF;" d="M141.968,303.152c0-10.752,16.896-10.752,16.896,0v50.528c0,20.096-9.6,32.256-31.728,32.256
    c-10.88,0-19.952-2.96-27.888-13.184c-6.528-7.808,5.76-19.056,12.416-10.88c5.376,6.656,11.136,8.192,16.752,7.936
    c7.152-0.256,13.44-3.472,13.568-16.128v-50.528H141.968z"/>
  <path style="fill:#FFFFFF;" d="M181.344,303.152c0-4.224,3.328-8.832,8.704-8.832H219.6c16.64,0,31.616,11.136,31.616,32.48
    c0,20.224-14.976,31.488-31.616,31.488h-21.36v16.896c0,5.632-3.584,8.816-8.192,8.816c-4.224,0-8.704-3.184-8.704-8.816
    L181.344,303.152L181.344,303.152z M198.24,310.432v31.872h21.36c8.576,0,15.36-7.568,15.36-15.504
    c0-8.944-6.784-16.368-15.36-16.368H198.24z"/>
  <path style="fill:#FFFFFF;" d="M342.576,374.16c-9.088,7.552-20.224,10.752-31.472,10.752c-26.88,0-45.936-15.344-45.936-45.808
    c0-25.824,20.096-45.904,47.072-45.904c10.112,0,21.232,3.44,29.168,11.248c7.792,7.664-3.456,19.056-11.12,12.288
    c-4.736-4.608-11.392-8.064-18.048-8.064c-15.472,0-30.432,12.4-30.432,30.432c0,18.944,12.528,30.464,29.296,30.464
    c7.792,0,14.448-2.32,19.184-5.76V348.08h-19.184c-11.392,0-10.24-15.616,0-15.616h25.584c4.736,0,9.072,3.584,9.072,7.552v27.248
    C345.76,369.568,344.752,371.712,342.576,374.16z"/>
</g>
<path style="fill:#CAD1D8;" d="M400,432H96v16h304c8.8,0,16-7.2,16-16v-16C416,424.8,408.8,432,400,432z"/>
<g>
</g>
<g>
</g>
<g>
</g>
<g>
</g>
<g>
</g>
<g>
</g>
<g>
</g>
<g>
</g>
<g>
</g>
<g>
</g>
<g>
</g>
<g>
</g>
<g>
</g>
<g>
</g>
<g>
</g>
</g></symbol><symbol id="icon-menu-close">
  <path fill="#0069AA" fill-rule="evenodd" d="M14.373 10.84l6.724-6.723c.77-.772.773-2.043-.01-2.826l-.7-.7C19.6-.193 18.34-.194 17.56.58l-6.723 6.725L4.114.58c-.778-.776-2.04-.775-2.826.01l-.7.7c-.783.784-.782 2.055-.01 2.827l6.724 6.724-6.724 6.725c-.772.772-.773 2.043.01 2.826l.7.7c.786.787 2.048.788 2.826.01l6.723-6.723L17.56 21.1c.78.777 2.04.776 2.827-.01l.7-.7c.783-.783.78-2.054.01-2.826l-6.724-6.723z"/>
</symbol><symbol id="icon-menu-open">
  <path fill="#0069AA" fill-rule="evenodd" d="M0 1.5A1.5 1.5 0 0 1 1.508 0h26.984a1.5 1.5 0 1 1 0 3H1.508A1.5 1.5 0 0 1 0 1.5zm0 10c0-.828.665-1.5 1.503-1.5h16.994c.83 0 1.503.666 1.503 1.5 0 .828-.665 1.5-1.503 1.5H1.503C.673 13 0 12.334 0 11.5zm22 0c0-.828.668-1.5 1.505-1.5h4.99a1.5 1.5 0 1 1 0 3h-4.99A1.5 1.5 0 0 1 22 11.5zm-22 10A1.5 1.5 0 0 1 1.508 20h26.984a1.5 1.5 0 1 1 0 3H1.508A1.5 1.5 0 0 1 0 21.5z"/>
</symbol><symbol id="icon-pdf" viewBox="0 0 512 512"><g style="enable-background:new 0 0 512 512;">
<path style="fill:#E2E5E7;" d="M128,0c-17.6,0-32,14.4-32,32v448c0,17.6,14.4,32,32,32h320c17.6,0,32-14.4,32-32V128L352,0H128z"/>
<path style="fill:#B0B7BD;" d="M384,128h96L352,0v96C352,113.6,366.4,128,384,128z"/>
<polygon style="fill:#CAD1D8;" points="480,224 384,128 480,128 "/>
<path style="fill:#F15642;" d="M416,416c0,8.8-7.2,16-16,16H48c-8.8,0-16-7.2-16-16V256c0-8.8,7.2-16,16-16h352c8.8,0,16,7.2,16,16
  V416z"/>
<g>
  <path style="fill:#FFFFFF;" d="M101.744,303.152c0-4.224,3.328-8.832,8.688-8.832h29.552c16.64,0,31.616,11.136,31.616,32.48
    c0,20.224-14.976,31.488-31.616,31.488h-21.36v16.896c0,5.632-3.584,8.816-8.192,8.816c-4.224,0-8.688-3.184-8.688-8.816V303.152z
      M118.624,310.432v31.872h21.36c8.576,0,15.36-7.568,15.36-15.504c0-8.944-6.784-16.368-15.36-16.368H118.624z"/>
  <path style="fill:#FFFFFF;" d="M196.656,384c-4.224,0-8.832-2.304-8.832-7.92v-72.672c0-4.592,4.608-7.936,8.832-7.936h29.296
    c58.464,0,57.184,88.528,1.152,88.528H196.656z M204.72,311.088V368.4h21.232c34.544,0,36.08-57.312,0-57.312H204.72z"/>
  <path style="fill:#FFFFFF;" d="M303.872,312.112v20.336h32.624c4.608,0,9.216,4.608,9.216,9.072c0,4.224-4.608,7.68-9.216,7.68
    h-32.624v26.864c0,4.48-3.184,7.92-7.664,7.92c-5.632,0-9.072-3.44-9.072-7.92v-72.672c0-4.592,3.456-7.936,9.072-7.936h44.912
    c5.632,0,8.96,3.344,8.96,7.936c0,4.096-3.328,8.704-8.96,8.704h-37.248V312.112z"/>
</g>
<path style="fill:#CAD1D8;" d="M400,432H96v16h304c8.8,0,16-7.2,16-16v-16C416,424.8,408.8,432,400,432z"/>
<g>
</g>
<g>
</g>
<g>
</g>
<g>
</g>
<g>
</g>
<g>
</g>
<g>
</g>
<g>
</g>
<g>
</g>
<g>
</g>
<g>
</g>
<g>
</g>
<g>
</g>
<g>
</g>
<g>
</g>
</g></symbol><symbol id="icon-search" viewBox="0 0 26.979 25.344"><g fill="none" stroke="#0069aa" stroke-width="2"><circle cx="10.5" cy="10.5" r="10.5" stroke="none"/><circle cx="10.5" cy="10.5" r="9.5" fill="none"/></g><path d="M1.466-.045A1.349,1.349,0,0,1,2.887,1.349l-.271,8.64A1.567,1.567,0,0,1,1.1,11.474,1.349,1.349,0,0,1-.317,10.08l.271-8.64A1.567,1.567,0,0,1,1.466-.045Z" transform="matrix(0.602, -0.799, 0.799, 0.602, 16.077, 18.184)" fill="#0069aa"/></symbol><symbol id="icon-vk"><circle cx="12.672" cy="12.672" r="12.672" fill="#0069aa" data-name="Group 23"/><path fill="#fff" fill-rule="evenodd" d="M12.193 18.23h.995a.839.839 0 0 0 .454-.2.728.728 0 0 0 .137-.437s-.019-1.335.6-1.531 1.395 1.29 2.226 1.86a1.575 1.575 0 0 0 1.106.337l2.222-.031s1.162-.072.611-.986a7.425 7.425 0 0 0-1.652-1.912c-1.393-1.293-1.207-1.084.472-3.321 1.022-1.362 1.431-2.194 1.3-2.55-.122-.339-.874-.25-.874-.25l-2.5.016a.568.568 0 0 0-.323.057.7.7 0 0 0-.221.269 14.486 14.486 0 0 1-.924 1.951c-1.114 1.892-1.56 1.992-1.742 1.874-.424-.274-.318-1.1-.318-1.687 0-1.833.278-2.6-.541-2.8a4.272 4.272 0 0 0-1.168-.116 5.393 5.393 0 0 0-2.076.212c-.285.139-.5.45-.37.468a1.123 1.123 0 0 1 .738.371 2.414 2.414 0 0 1 .247 1.132s.147 2.158-.344 2.426c-.337.184-.8-.192-1.793-1.908a15.955 15.955 0 0 1-.893-1.851.743.743 0 0 0-.206-.279 1.037 1.037 0 0 0-.384-.155l-2.377.016s-.357.01-.488.165c-.117.138-.009.424-.009.424a27.055 27.055 0 0 0 3.969 6.549 5.709 5.709 0 0 0 4.127 1.88Z" data-name="Path 236"/></symbol><symbol id="icon-xls" viewBox="0 0 512 512"><g style="enable-background:new 0 0 512 512;">
<path style="fill:#E2E5E7;" d="M128,0c-17.6,0-32,14.4-32,32v448c0,17.6,14.4,32,32,32h320c17.6,0,32-14.4,32-32V128L352,0H128z"/>
<path style="fill:#B0B7BD;" d="M384,128h96L352,0v96C352,113.6,366.4,128,384,128z"/>
<polygon style="fill:#CAD1D8;" points="480,224 384,128 480,128 "/>
<path style="fill:#84BD5A;" d="M416,416c0,8.8-7.2,16-16,16H48c-8.8,0-16-7.2-16-16V256c0-8.8,7.2-16,16-16h352c8.8,0,16,7.2,16,16
  V416z"/>
<g>
  <path style="fill:#FFFFFF;" d="M144.336,326.192l22.256-27.888c6.656-8.704,19.584,2.416,12.288,10.736
    c-7.664,9.088-15.728,18.944-23.408,29.04l26.096,32.496c7.04,9.6-7.024,18.8-13.936,9.328l-23.552-30.192l-23.152,30.848
    c-6.528,9.328-20.992-1.152-13.696-9.856l25.712-32.624c-8.064-10.112-15.872-19.952-23.664-29.04
    c-8.048-9.6,6.912-19.44,12.8-10.464L144.336,326.192z"/>
  <path style="fill:#FFFFFF;" d="M197.36,303.152c0-4.224,3.584-7.808,8.064-7.808c4.096,0,7.552,3.6,7.552,7.808v64.096h34.8
    c12.528,0,12.8,16.752,0,16.752H205.44c-4.48,0-8.064-3.184-8.064-7.792v-73.056H197.36z"/>
  <path style="fill:#FFFFFF;" d="M272.032,314.672c2.944-24.832,40.416-29.296,58.08-15.728c8.704,7.024-0.512,18.16-8.192,12.528
    c-9.472-6-30.96-8.816-33.648,4.464c-3.456,20.992,52.192,8.976,51.296,43.008c-0.896,32.496-47.968,33.248-65.632,18.672
    c-4.24-3.456-4.096-9.072-1.792-12.544c3.328-3.312,7.024-4.464,11.392-0.88c10.48,7.152,37.488,12.528,39.392-5.648
    C321.28,339.632,268.064,351.008,272.032,314.672z"/>
</g>
<path style="fill:#CAD1D8;" d="M400,432H96v16h304c8.8,0,16-7.2,16-16v-16C416,424.8,408.8,432,400,432z"/>
<g>
</g>
<g>
</g>
<g>
</g>
<g>
</g>
<g>
</g>
<g>
</g>
<g>
</g>
<g>
</g>
<g>
</g>
<g>
</g>
<g>
</g>
<g>
</g>
<g>
</g>
<g>
</g>
<g>
</g>
</g></symbol></svg>